<svg id="visual" viewBox="0 0 600 900" width="600" height="900" xmlns="http://www.w3.org/2000/svg" xmlns:xlink="http://www.w3.org/1999/xlink" version="1.1"><g stroke-width="1" stroke-linejoin="bevel"><path d="M286.7 484L265.7 418.7L251.7 511.3Z" fill="#03293c" stroke="#03293c"></path><path d="M265.7 418.7L193 492.3L251.7 511.3Z" fill="#031d2f" stroke="#031d2f"></path><path d="M265.7 418.7L189 430L193 492.3Z" fill="#007977" stroke="#007977"></path><path d="M265.7 418.7L195 392.7L189 430Z" fill="#004254" stroke="#004254"></path><path d="M170.3 390.7L160.3 416L189 430Z" fill="#023548" stroke="#023548"></path><path d="M189 430L160.3 416L193 492.3Z" fill="#004254" stroke="#004254"></path><path d="M348.3 515.3L340.3 461L286.7 484Z" fill="#004254" stroke="#004254"></path><path d="M286.7 484L340.3 461L265.7 418.7Z" fill="#001122" stroke="#001122"></path><path d="M195 392.7L170.3 390.7L189 430Z" fill="#031d2f" stroke="#031d2f"></path><path d="M133.3 538.3L198 554.6L193 492.3Z" fill="#0e9477" stroke="#0e9477"></path><path d="M193 492.3L198 554.6L251.7 511.3Z" fill="#031d2f" stroke="#031d2f"></path><path d="M251.7 511.3L348.3 515.3L286.7 484Z" fill="#03293c" stroke="#03293c"></path><path d="M340.3 461L336.3 415.7L265.7 418.7Z" fill="#008678" stroke="#008678"></path><path d="M203 327.4L158.3 353.4L195 392.7Z" fill="#008678" stroke="#008678"></path><path d="M198 554.6L249.7 571.6L251.7 511.3Z" fill="#007977" stroke="#007977"></path><path d="M249.7 571.6L348.3 515.3L251.7 511.3Z" fill="#001122" stroke="#001122"></path><path d="M340.3 461L367 456L336.3 415.7Z" fill="#008678" stroke="#008678"></path><path d="M348.3 515.3L367 456L340.3 461Z" fill="#031d2f" stroke="#031d2f"></path><path d="M85.7 465L133.3 538.3L193 492.3Z" fill="#0e9477" stroke="#0e9477"></path><path d="M198 554.6L238.7 634.9L249.7 571.6Z" fill="#008678" stroke="#008678"></path><path d="M170.3 390.7L158.3 353.4L160.3 416Z" fill="#0e9477" stroke="#0e9477"></path><path d="M160.3 416L85.7 465L193 492.3Z" fill="#0e9477" stroke="#0e9477"></path><path d="M195 392.7L158.3 353.4L170.3 390.7Z" fill="#023548" stroke="#023548"></path><path d="M203 327.4L195 392.7L265.7 418.7Z" fill="#03293c" stroke="#03293c"></path><path d="M300.7 299.4L203 327.4L265.7 418.7Z" fill="#008678" stroke="#008678"></path><path d="M427 355.4L340.3 349.4L336.3 415.7Z" fill="#031d2f" stroke="#031d2f"></path><path d="M336.3 415.7L340.3 349.4L265.7 418.7Z" fill="#004254" stroke="#004254"></path><path d="M33.7 410.7L85.7 465L160.3 416Z" fill="#008678" stroke="#008678"></path><path d="M92.7 536.3L121.3 572.6L133.3 538.3Z" fill="#001122" stroke="#001122"></path><path d="M133.3 538.3L121.3 572.6L198 554.6Z" fill="#031d2f" stroke="#031d2f"></path><path d="M249.7 571.6L372.3 563.6L348.3 515.3Z" fill="#008678" stroke="#008678"></path><path d="M348.3 515.3L416 531.3L367 456Z" fill="#004254" stroke="#004254"></path><path d="M85.7 465L92.7 536.3L133.3 538.3Z" fill="#031d2f" stroke="#031d2f"></path><path d="M182 672.1L238.7 634.9L198 554.6Z" fill="#0e9477" stroke="#0e9477"></path><path d="M249.7 571.6L295.3 674.9L372.3 563.6Z" fill="#03293c" stroke="#03293c"></path><path d="M340.3 349.4L300.7 299.4L265.7 418.7Z" fill="#0e9477" stroke="#0e9477"></path><path d="M295.3 674.9L381 573.6L372.3 563.6Z" fill="#001122" stroke="#001122"></path><path d="M372.3 563.6L416 531.3L348.3 515.3Z" fill="#031d2f" stroke="#031d2f"></path><path d="M300.7 299.4L224 279.1L203 327.4Z" fill="#031d2f" stroke="#031d2f"></path><path d="M203 327.4L110.3 253.1L158.3 353.4Z" fill="#008678" stroke="#008678"></path><path d="M340.3 349.4L311.3 290.1L300.7 299.4Z" fill="#023548" stroke="#023548"></path><path d="M300.7 299.4L235.7 232.1L224 279.1Z" fill="#006b72" stroke="#006b72"></path><path d="M381 573.6L416 531.3L372.3 563.6Z" fill="#005d6a" stroke="#005d6a"></path><path d="M367 456L437 379.7L336.3 415.7Z" fill="#001122" stroke="#001122"></path><path d="M416 531.3L439.7 480.3L367 456Z" fill="#023548" stroke="#023548"></path><path d="M340.3 349.4L431 248.1L311.3 290.1Z" fill="#008678" stroke="#008678"></path><path d="M92.7 536.3L56.7 559.6L121.3 572.6Z" fill="#001122" stroke="#001122"></path><path d="M121.3 572.6L182 672.1L198 554.6Z" fill="#007977" stroke="#007977"></path><path d="M0 530.3L56.7 559.6L92.7 536.3Z" fill="#004f60" stroke="#004f60"></path><path d="M459.7 440L437 379.7L367 456Z" fill="#005d6a" stroke="#005d6a"></path><path d="M437 379.7L427 355.4L336.3 415.7Z" fill="#03293c" stroke="#03293c"></path><path d="M69.7 330.4L160.3 416L158.3 353.4Z" fill="#023548" stroke="#023548"></path><path d="M69.7 330.4L33.7 410.7L160.3 416Z" fill="#001122" stroke="#001122"></path><path d="M85.7 465L0 530.3L92.7 536.3Z" fill="#004254" stroke="#004254"></path><path d="M110.3 253.1L69.7 330.4L158.3 353.4Z" fill="#001122" stroke="#001122"></path><path d="M163 673.9L182 672.1L121.3 572.6Z" fill="#03293c" stroke="#03293c"></path><path d="M238.7 634.9L295.3 674.9L249.7 571.6Z" fill="#031d2f" stroke="#031d2f"></path><path d="M251.7 734.1L295.3 674.9L238.7 634.9Z" fill="#004f60" stroke="#004f60"></path><path d="M496.3 454L459.7 440L439.7 480.3Z" fill="#007977" stroke="#007977"></path><path d="M439.7 480.3L459.7 440L367 456Z" fill="#0e9477" stroke="#0e9477"></path><path d="M95.3 679.9L163 673.9L121.3 572.6Z" fill="#005d6a" stroke="#005d6a"></path><path d="M251.7 734.1L324.3 698.1L295.3 674.9Z" fill="#0e9477" stroke="#0e9477"></path><path d="M320.3 222.9L235.7 232.1L311.3 290.1Z" fill="#006b72" stroke="#006b72"></path><path d="M311.3 290.1L235.7 232.1L300.7 299.4Z" fill="#004254" stroke="#004254"></path><path d="M224 279.1L110.3 253.1L203 327.4Z" fill="#004254" stroke="#004254"></path><path d="M0 349.7L0 463L33.7 410.7Z" fill="#005d6a" stroke="#005d6a"></path><path d="M33.7 410.7L0 463L85.7 465Z" fill="#007977" stroke="#007977"></path><path d="M235.7 232.1L110.3 253.1L224 279.1Z" fill="#004254" stroke="#004254"></path><path d="M251.7 734.1L238.7 634.9L182 672.1Z" fill="#006b72" stroke="#006b72"></path><path d="M295.3 674.9L415 656.9L381 573.6Z" fill="#007977" stroke="#007977"></path><path d="M381 573.6L499.7 613.6L416 531.3Z" fill="#004254" stroke="#004254"></path><path d="M0 463L0 530.3L85.7 465Z" fill="#0e9477" stroke="#0e9477"></path><path d="M26.7 631.9L95.3 679.9L121.3 572.6Z" fill="#031d2f" stroke="#031d2f"></path><path d="M431 248.1L320.3 222.9L311.3 290.1Z" fill="#007977" stroke="#007977"></path><path d="M545.3 586.6L496.3 454L439.7 480.3Z" fill="#03293c" stroke="#03293c"></path><path d="M459.7 440L504.7 347.7L437 379.7Z" fill="#005d6a" stroke="#005d6a"></path><path d="M500.7 313.4L431 248.1L427 355.4Z" fill="#0e9477" stroke="#0e9477"></path><path d="M545.3 586.6L439.7 480.3L416 531.3Z" fill="#0e9477" stroke="#0e9477"></path><path d="M324.3 698.1L415 656.9L295.3 674.9Z" fill="#001122" stroke="#001122"></path><path d="M26.7 631.9L121.3 572.6L56.7 559.6Z" fill="#005d6a" stroke="#005d6a"></path><path d="M163 673.9L167.3 717.1L182 672.1Z" fill="#004f60" stroke="#004f60"></path><path d="M123.3 734.4L167.3 717.1L163 673.9Z" fill="#001122" stroke="#001122"></path><path d="M0 329.4L0 349.7L69.7 330.4Z" fill="#007977" stroke="#007977"></path><path d="M69.7 330.4L0 349.7L33.7 410.7Z" fill="#004254" stroke="#004254"></path><path d="M0 530.3L0 585.6L56.7 559.6Z" fill="#031d2f" stroke="#031d2f"></path><path d="M167.3 717.1L251.7 734.1L182 672.1Z" fill="#004f60" stroke="#004f60"></path><path d="M488.7 733.1L482.7 637.9L415 656.9Z" fill="#0e9477" stroke="#0e9477"></path><path d="M0 585.6L26.7 631.9L56.7 559.6Z" fill="#0e9477" stroke="#0e9477"></path><path d="M0 267.1L0 329.4L69.7 330.4Z" fill="#004f60" stroke="#004f60"></path><path d="M286.7 153.6L227.7 185.9L235.7 232.1Z" fill="#03293c" stroke="#03293c"></path><path d="M235.7 232.1L172 164.9L110.3 253.1Z" fill="#0e9477" stroke="#0e9477"></path><path d="M172 164.9L97.7 222.1L110.3 253.1Z" fill="#001122" stroke="#001122"></path><path d="M110.3 253.1L0 267.1L69.7 330.4Z" fill="#005d6a" stroke="#005d6a"></path><path d="M427 355.4L431 248.1L340.3 349.4Z" fill="#004254" stroke="#004254"></path><path d="M320.3 222.9L286.7 153.6L235.7 232.1Z" fill="#023548" stroke="#023548"></path><path d="M504.7 347.7L427 355.4L437 379.7Z" fill="#008678" stroke="#008678"></path><path d="M496.3 454L504.7 347.7L459.7 440Z" fill="#004254" stroke="#004254"></path><path d="M95.3 679.9L123.3 734.4L163 673.9Z" fill="#023548" stroke="#023548"></path><path d="M167.3 717.1L175 773.4L251.7 734.1Z" fill="#004254" stroke="#004254"></path><path d="M91.7 758.4L123.3 734.4L95.3 679.9Z" fill="#005d6a" stroke="#005d6a"></path><path d="M405 733.1L415 656.9L324.3 698.1Z" fill="#006b72" stroke="#006b72"></path><path d="M415 656.9L482.7 637.9L381 573.6Z" fill="#007977" stroke="#007977"></path><path d="M496.3 454L564.3 402.7L504.7 347.7Z" fill="#03293c" stroke="#03293c"></path><path d="M504.7 347.7L500.7 313.4L427 355.4Z" fill="#007977" stroke="#007977"></path><path d="M482.7 637.9L499.7 613.6L381 573.6Z" fill="#0e9477" stroke="#0e9477"></path><path d="M227.7 185.9L172 164.9L235.7 232.1Z" fill="#004254" stroke="#004254"></path><path d="M231 116.6L172 164.9L227.7 185.9Z" fill="#0e9477" stroke="#0e9477"></path><path d="M0 219.9L0 267.1L97.7 222.1Z" fill="#001122" stroke="#001122"></path><path d="M97.7 222.1L0 267.1L110.3 253.1Z" fill="#001122" stroke="#001122"></path><path d="M253.7 801.4L332.3 760.4L251.7 734.1Z" fill="#007977" stroke="#007977"></path><path d="M251.7 734.1L332.3 760.4L324.3 698.1Z" fill="#0e9477" stroke="#0e9477"></path><path d="M436 147.6L286.7 153.6L320.3 222.9Z" fill="#03293c" stroke="#03293c"></path><path d="M0 677.1L47.7 708.1L26.7 631.9Z" fill="#006b72" stroke="#006b72"></path><path d="M26.7 631.9L47.7 708.1L95.3 679.9Z" fill="#005d6a" stroke="#005d6a"></path><path d="M0 585.6L0 661.9L26.7 631.9Z" fill="#0e9477" stroke="#0e9477"></path><path d="M491.7 238.1L435 212.9L431 248.1Z" fill="#03293c" stroke="#03293c"></path><path d="M431 248.1L435 212.9L320.3 222.9Z" fill="#023548" stroke="#023548"></path><path d="M332.3 760.4L405 733.1L324.3 698.1Z" fill="#006b72" stroke="#006b72"></path><path d="M91.7 758.4L175 773.4L123.3 734.4Z" fill="#0e9477" stroke="#0e9477"></path><path d="M123.3 734.4L175 773.4L167.3 717.1Z" fill="#023548" stroke="#023548"></path><path d="M0 661.9L0 677.1L26.7 631.9Z" fill="#004254" stroke="#004254"></path><path d="M132.3 118.6L124.3 156.9L172 164.9Z" fill="#006b72" stroke="#006b72"></path><path d="M172 164.9L124.3 156.9L97.7 222.1Z" fill="#005d6a" stroke="#005d6a"></path><path d="M546.3 651.9L499.7 613.6L482.7 637.9Z" fill="#023548" stroke="#023548"></path><path d="M546.3 651.9L545.3 586.6L499.7 613.6Z" fill="#03293c" stroke="#03293c"></path><path d="M499.7 613.6L545.3 586.6L416 531.3Z" fill="#004f60" stroke="#004f60"></path><path d="M572.3 282.4L521.3 275.1L500.7 313.4Z" fill="#001122" stroke="#001122"></path><path d="M572.3 479.3L564.3 402.7L496.3 454Z" fill="#0e9477" stroke="#0e9477"></path><path d="M500.7 313.4L491.7 238.1L431 248.1Z" fill="#007977" stroke="#007977"></path><path d="M545.3 586.6L572.3 479.3L496.3 454Z" fill="#007977" stroke="#007977"></path><path d="M47.7 708.1L91.7 758.4L95.3 679.9Z" fill="#004254" stroke="#004254"></path><path d="M0 737.4L91.7 758.4L47.7 708.1Z" fill="#006b72" stroke="#006b72"></path><path d="M521.3 275.1L491.7 238.1L500.7 313.4Z" fill="#004254" stroke="#004254"></path><path d="M572.3 282.4L500.7 313.4L504.7 347.7Z" fill="#004f60" stroke="#004f60"></path><path d="M284.7 828.7L253.7 801.4L229 838.7Z" fill="#004f60" stroke="#004f60"></path><path d="M175 773.4L253.7 801.4L251.7 734.1Z" fill="#005d6a" stroke="#005d6a"></path><path d="M332.3 760.4L403 773.4L405 733.1Z" fill="#0e9477" stroke="#0e9477"></path><path d="M67.7 154.9L0 219.9L97.7 222.1Z" fill="#004254" stroke="#004254"></path><path d="M302.3 93.6L231 116.6L286.7 153.6Z" fill="#008678" stroke="#008678"></path><path d="M286.7 153.6L231 116.6L227.7 185.9Z" fill="#03293c" stroke="#03293c"></path><path d="M436 147.6L320.3 222.9L435 212.9Z" fill="#008678" stroke="#008678"></path><path d="M376 795.7L403 773.4L332.3 760.4Z" fill="#004f60" stroke="#004f60"></path><path d="M547.3 699.1L546.3 651.9L482.7 637.9Z" fill="#03293c" stroke="#03293c"></path><path d="M95.7 125.6L67.7 154.9L124.3 156.9Z" fill="#005d6a" stroke="#005d6a"></path><path d="M124.3 156.9L67.7 154.9L97.7 222.1Z" fill="#0e9477" stroke="#0e9477"></path><path d="M488.7 733.1L415 656.9L405 733.1Z" fill="#004f60" stroke="#004f60"></path><path d="M600 489.3L600 487L572.3 479.3Z" fill="#007977" stroke="#007977"></path><path d="M600 489.3L572.3 479.3L600 569.6Z" fill="#023548" stroke="#023548"></path><path d="M572.3 479.3L600 487L564.3 402.7Z" fill="#0e9477" stroke="#0e9477"></path><path d="M564.3 402.7L600 387.7L504.7 347.7Z" fill="#004f60" stroke="#004f60"></path><path d="M600 569.6L572.3 479.3L545.3 586.6Z" fill="#008678" stroke="#008678"></path><path d="M357.3 846.7L376 795.7L332.3 760.4Z" fill="#007977" stroke="#007977"></path><path d="M193 90.3L132.3 118.6L172 164.9Z" fill="#006b72" stroke="#006b72"></path><path d="M600 487L600 387.7L564.3 402.7Z" fill="#03293c" stroke="#03293c"></path><path d="M0 677.1L0 737.4L47.7 708.1Z" fill="#004f60" stroke="#004f60"></path><path d="M229 838.7L253.7 801.4L175 773.4Z" fill="#005d6a" stroke="#005d6a"></path><path d="M448.7 776.4L405 733.1L403 773.4Z" fill="#005d6a" stroke="#005d6a"></path><path d="M448.7 776.4L488.7 733.1L405 733.1Z" fill="#03293c" stroke="#03293c"></path><path d="M132.3 118.6L95.7 125.6L124.3 156.9Z" fill="#004f60" stroke="#004f60"></path><path d="M67.7 154.9L0 126.6L0 219.9Z" fill="#0e9477" stroke="#0e9477"></path><path d="M229 838.7L175 773.4L114.3 819.7Z" fill="#031d2f" stroke="#031d2f"></path><path d="M253.7 801.4L284.7 828.7L332.3 760.4Z" fill="#004f60" stroke="#004f60"></path><path d="M464.7 162.9L435 212.9L491.7 238.1Z" fill="#005d6a" stroke="#005d6a"></path><path d="M464.7 162.9L436 147.6L435 212.9Z" fill="#004f60" stroke="#004f60"></path><path d="M464.7 162.9L491.7 238.1L532.3 167.6Z" fill="#004254" stroke="#004254"></path><path d="M532.3 167.6L600 201.9L563.3 167.9Z" fill="#004254" stroke="#004254"></path><path d="M436 147.6L302.3 93.6L286.7 153.6Z" fill="#007977" stroke="#007977"></path><path d="M231 116.6L193 90.3L172 164.9Z" fill="#007977" stroke="#007977"></path><path d="M600 635.9L600 569.6L545.3 586.6Z" fill="#031d2f" stroke="#031d2f"></path><path d="M280.7 54.3L193 90.3L231 116.6Z" fill="#004254" stroke="#004254"></path><path d="M132.3 118.6L155.3 75.3L95.7 125.6Z" fill="#004254" stroke="#004254"></path><path d="M466.7 859.7L448.7 776.4L376 795.7Z" fill="#03293c" stroke="#03293c"></path><path d="M376 795.7L448.7 776.4L403 773.4Z" fill="#03293c" stroke="#03293c"></path><path d="M600 295.4L572.3 282.4L504.7 347.7Z" fill="#001122" stroke="#001122"></path><path d="M114.3 819.7L175 773.4L91.7 758.4Z" fill="#004254" stroke="#004254"></path><path d="M57.7 803.7L114.3 819.7L91.7 758.4Z" fill="#031d2f" stroke="#031d2f"></path><path d="M488.7 733.1L547.3 699.1L482.7 637.9Z" fill="#006b72" stroke="#006b72"></path><path d="M546.3 651.9L600 635.9L545.3 586.6Z" fill="#008678" stroke="#008678"></path><path d="M600 755.4L547.3 699.1L488.7 733.1Z" fill="#004254" stroke="#004254"></path><path d="M0 737.4L57.7 803.7L91.7 758.4Z" fill="#007977" stroke="#007977"></path><path d="M600 387.7L600 295.4L504.7 347.7Z" fill="#004254" stroke="#004254"></path><path d="M532.3 167.6L491.7 238.1L600 201.9Z" fill="#001122" stroke="#001122"></path><path d="M170 0L155.3 75.3L193 90.3Z" fill="#001122" stroke="#001122"></path><path d="M193 90.3L155.3 75.3L132.3 118.6Z" fill="#031d2f" stroke="#031d2f"></path><path d="M547.3 699.1L600 635.9L546.3 651.9Z" fill="#008678" stroke="#008678"></path><path d="M600 295.4L600 283.1L572.3 282.4Z" fill="#03293c" stroke="#03293c"></path><path d="M284.7 828.7L357.3 846.7L332.3 760.4Z" fill="#031d2f" stroke="#031d2f"></path><path d="M320.3 900L357.3 846.7L284.7 828.7Z" fill="#004254" stroke="#004254"></path><path d="M369.3 38.3L280.7 54.3L302.3 93.6Z" fill="#005d6a" stroke="#005d6a"></path><path d="M302.3 93.6L280.7 54.3L231 116.6Z" fill="#023548" stroke="#023548"></path><path d="M421 76.3L302.3 93.6L436 147.6Z" fill="#03293c" stroke="#03293c"></path><path d="M0 102.3L0 126.6L40.7 73.3Z" fill="#005d6a" stroke="#005d6a"></path><path d="M0 126.6L67.7 154.9L40.7 73.3Z" fill="#001122" stroke="#001122"></path><path d="M491.7 238.1L521.3 275.1L600 201.9Z" fill="#001122" stroke="#001122"></path><path d="M464.7 162.9L495.7 128.6L436 147.6Z" fill="#001122" stroke="#001122"></path><path d="M532.3 167.6L495.7 128.6L464.7 162.9Z" fill="#008678" stroke="#008678"></path><path d="M466.7 859.7L497.3 802.4L448.7 776.4Z" fill="#031d2f" stroke="#031d2f"></path><path d="M448.7 776.4L497.3 802.4L488.7 733.1Z" fill="#031d2f" stroke="#031d2f"></path><path d="M547.3 699.1L600 718.1L600 635.9Z" fill="#006b72" stroke="#006b72"></path><path d="M486.7 93.3L421 76.3L436 147.6Z" fill="#031d2f" stroke="#031d2f"></path><path d="M40.7 73.3L67.7 154.9L95.7 125.6Z" fill="#0e9477" stroke="#0e9477"></path><path d="M0 737.4L0 822.7L57.7 803.7Z" fill="#006b72" stroke="#006b72"></path><path d="M57.7 803.7L46.7 900L114.3 819.7Z" fill="#031d2f" stroke="#031d2f"></path><path d="M166.3 900L230 900L229 838.7Z" fill="#005d6a" stroke="#005d6a"></path><path d="M532.3 167.6L563.3 167.9L495.7 128.6Z" fill="#031d2f" stroke="#031d2f"></path><path d="M495.7 128.6L486.7 93.3L436 147.6Z" fill="#005d6a" stroke="#005d6a"></path><path d="M600 201.9L521.3 275.1L572.3 282.4Z" fill="#001122" stroke="#001122"></path><path d="M166.3 900L229 838.7L114.3 819.7Z" fill="#008678" stroke="#008678"></path><path d="M229 838.7L257.7 900L284.7 828.7Z" fill="#03293c" stroke="#03293c"></path><path d="M357.3 846.7L466.7 859.7L376 795.7Z" fill="#007977" stroke="#007977"></path><path d="M230 900L257.7 900L229 838.7Z" fill="#007977" stroke="#007977"></path><path d="M123.3 0L40.7 73.3L155.3 75.3Z" fill="#004f60" stroke="#004f60"></path><path d="M155.3 75.3L40.7 73.3L95.7 125.6Z" fill="#001122" stroke="#001122"></path><path d="M600 755.4L600 718.1L547.3 699.1Z" fill="#007977" stroke="#007977"></path><path d="M382 0L369.3 38.3L421 76.3Z" fill="#0e9477" stroke="#0e9477"></path><path d="M421 76.3L369.3 38.3L302.3 93.6Z" fill="#031d2f" stroke="#031d2f"></path><path d="M280.7 54.3L170 0L193 90.3Z" fill="#0e9477" stroke="#0e9477"></path><path d="M600 283.1L600 201.9L572.3 282.4Z" fill="#006b72" stroke="#006b72"></path><path d="M486.7 93.3L495.7 128.6L600 52.3Z" fill="#007977" stroke="#007977"></path><path d="M538.3 28.3L486.7 93.3L600 52.3Z" fill="#004254" stroke="#004254"></path><path d="M46.7 900L166.3 900L114.3 819.7Z" fill="#023548" stroke="#023548"></path><path d="M257.7 900L320.3 900L284.7 828.7Z" fill="#008678" stroke="#008678"></path><path d="M384 900L466.7 859.7L357.3 846.7Z" fill="#006b72" stroke="#006b72"></path><path d="M497.3 802.4L600 755.4L488.7 733.1Z" fill="#007977" stroke="#007977"></path><path d="M320.3 900L384 900L357.3 846.7Z" fill="#0e9477" stroke="#0e9477"></path><path d="M600 824.7L600 755.4L497.3 802.4Z" fill="#001122" stroke="#001122"></path><path d="M341.3 0L276.7 0L280.7 54.3Z" fill="#001122" stroke="#001122"></path><path d="M276.7 0L170 0L280.7 54.3Z" fill="#001122" stroke="#001122"></path><path d="M600 201.9L600 160.6L563.3 167.9Z" fill="#008678" stroke="#008678"></path><path d="M369.3 38.3L341.3 0L280.7 54.3Z" fill="#007977" stroke="#007977"></path><path d="M382 0L341.3 0L369.3 38.3Z" fill="#007977" stroke="#007977"></path><path d="M382 0L421 76.3L466.7 0Z" fill="#008678" stroke="#008678"></path><path d="M170 0L123.3 0L155.3 75.3Z" fill="#001122" stroke="#001122"></path><path d="M40.7 73.3L0 0L0 102.3Z" fill="#004f60" stroke="#004f60"></path><path d="M0 822.7L46.7 900L57.7 803.7Z" fill="#03293c" stroke="#03293c"></path><path d="M466.7 0L421 76.3L486.7 93.3Z" fill="#023548" stroke="#023548"></path><path d="M123.3 0L62.7 0L40.7 73.3Z" fill="#031d2f" stroke="#031d2f"></path><path d="M0 822.7L0 900L46.7 900Z" fill="#008678" stroke="#008678"></path><path d="M384 900L484.7 900L466.7 859.7Z" fill="#031d2f" stroke="#031d2f"></path><path d="M466.7 859.7L556.3 859.7L497.3 802.4Z" fill="#006b72" stroke="#006b72"></path><path d="M536.3 900L556.3 859.7L466.7 859.7Z" fill="#0e9477" stroke="#0e9477"></path><path d="M556.3 859.7L600 824.7L497.3 802.4Z" fill="#008678" stroke="#008678"></path><path d="M501.3 0L466.7 0L486.7 93.3Z" fill="#008678" stroke="#008678"></path><path d="M62.7 0L0 0L40.7 73.3Z" fill="#007977" stroke="#007977"></path><path d="M600 52.3L495.7 128.6L563.3 167.9Z" fill="#005d6a" stroke="#005d6a"></path><path d="M484.7 900L536.3 900L466.7 859.7Z" fill="#004f60" stroke="#004f60"></path><path d="M556.3 859.7L600 900L600 824.7Z" fill="#0e9477" stroke="#0e9477"></path><path d="M538.3 28.3L501.3 0L486.7 93.3Z" fill="#004f60" stroke="#004f60"></path><path d="M600 160.6L600 52.3L563.3 167.9Z" fill="#031d2f" stroke="#031d2f"></path><path d="M538.3 28.3L600 0L501.3 0Z" fill="#008678" stroke="#008678"></path><path d="M536.3 900L600 900L556.3 859.7Z" fill="#004f60" stroke="#004f60"></path><path d="M600 52.3L600 0L538.3 28.3Z" fill="#004f60" stroke="#004f60"></path></g></svg>