<svg id="visual" viewBox="0 0 600 900" width="600" height="900" xmlns="http://www.w3.org/2000/svg" xmlns:xlink="http://www.w3.org/1999/xlink" version="1.1"><path d="M0 55L40 55L40 55L80 55L80 55L120 55L120 55L160 55L160 55L200 55L200 37L240 37L240 46L280 46L280 55L320 55L320 37L360 37L360 64L400 64L400 46L440 46L440 37L480 37L480 46L520 46L520 37L560 37L560 55L600 55L600 55L600 0L600 0L560 0L560 0L520 0L520 0L480 0L480 0L440 0L440 0L400 0L400 0L360 0L360 0L320 0L320 0L280 0L280 0L240 0L240 0L200 0L200 0L160 0L160 0L120 0L120 0L80 0L80 0L40 0L40 0L0 0Z" fill="#009473"></path><path d="M0 172L40 172L40 145L80 145L80 145L120 145L120 190L160 190L160 172L200 172L200 172L240 172L240 154L280 154L280 181L320 181L320 154L360 154L360 154L400 154L400 190L440 190L440 118L480 118L480 163L520 163L520 118L560 118L560 154L600 154L600 172L600 53L600 53L560 53L560 35L520 35L520 44L480 44L480 35L440 35L440 44L400 44L400 62L360 62L360 35L320 35L320 53L280 53L280 44L240 44L240 35L200 35L200 53L160 53L160 53L120 53L120 53L80 53L80 53L40 53L40 53L0 53Z" fill="#008776"></path><path d="M0 271L40 271L40 226L80 226L80 244L120 244L120 262L160 262L160 235L200 235L200 271L240 271L240 271L280 271L280 289L320 289L320 226L360 226L360 235L400 235L400 289L440 289L440 226L480 226L480 226L520 226L520 199L560 199L560 235L600 235L600 244L600 170L600 152L560 152L560 116L520 116L520 161L480 161L480 116L440 116L440 188L400 188L400 152L360 152L360 152L320 152L320 179L280 179L280 152L240 152L240 170L200 170L200 170L160 170L160 188L120 188L120 143L80 143L80 143L40 143L40 170L0 170Z" fill="#007975"></path><path d="M0 352L40 352L40 307L80 307L80 298L120 298L120 343L160 343L160 289L200 289L200 361L240 361L240 325L280 325L280 343L320 343L320 289L360 289L360 307L400 307L400 361L440 361L440 289L480 289L480 289L520 289L520 271L560 271L560 325L600 325L600 316L600 242L600 233L560 233L560 197L520 197L520 224L480 224L480 224L440 224L440 287L400 287L400 233L360 233L360 224L320 224L320 287L280 287L280 269L240 269L240 269L200 269L200 233L160 233L160 260L120 260L120 242L80 242L80 224L40 224L40 269L0 269Z" fill="#006b71"></path><path d="M0 388L40 388L40 343L80 343L80 325L120 325L120 370L160 370L160 334L200 334L200 388L240 388L240 352L280 352L280 379L320 379L320 316L360 316L360 352L400 352L400 388L440 388L440 316L480 316L480 334L520 334L520 298L560 298L560 352L600 352L600 343L600 314L600 323L560 323L560 269L520 269L520 287L480 287L480 287L440 287L440 359L400 359L400 305L360 305L360 287L320 287L320 341L280 341L280 323L240 323L240 359L200 359L200 287L160 287L160 341L120 341L120 296L80 296L80 305L40 305L40 350L0 350Z" fill="#005e6a"></path><path d="M0 532L40 532L40 541L80 541L80 523L120 523L120 505L160 505L160 505L200 505L200 577L240 577L240 496L280 496L280 604L320 604L320 514L360 514L360 577L400 577L400 604L440 604L440 559L480 559L480 550L520 550L520 514L560 514L560 496L600 496L600 514L600 341L600 350L560 350L560 296L520 296L520 332L480 332L480 314L440 314L440 386L400 386L400 350L360 350L360 314L320 314L320 377L280 377L280 350L240 350L240 386L200 386L200 332L160 332L160 368L120 368L120 323L80 323L80 341L40 341L40 386L0 386Z" fill="#005060"></path><path d="M0 577L40 577L40 577L80 577L80 559L120 559L120 550L160 550L160 559L200 559L200 640L240 640L240 532L280 532L280 649L320 649L320 550L360 550L360 631L400 631L400 640L440 640L440 622L480 622L480 613L520 613L520 568L560 568L560 532L600 532L600 577L600 512L600 494L560 494L560 512L520 512L520 548L480 548L480 557L440 557L440 602L400 602L400 575L360 575L360 512L320 512L320 602L280 602L280 494L240 494L240 575L200 575L200 503L160 503L160 503L120 503L120 521L80 521L80 539L40 539L40 530L0 530Z" fill="#004355"></path><path d="M0 622L40 622L40 622L80 622L80 595L120 595L120 595L160 595L160 604L200 604L200 667L240 667L240 577L280 577L280 685L320 685L320 604L360 604L360 676L400 676L400 676L440 676L440 676L480 676L480 658L520 658L520 613L560 613L560 577L600 577L600 613L600 575L600 530L560 530L560 566L520 566L520 611L480 611L480 620L440 620L440 638L400 638L400 629L360 629L360 548L320 548L320 647L280 647L280 530L240 530L240 638L200 638L200 557L160 557L160 548L120 548L120 557L80 557L80 575L40 575L40 575L0 575Z" fill="#013648"></path><path d="M0 676L40 676L40 694L80 694L80 649L120 649L120 640L160 640L160 676L200 676L200 712L240 712L240 631L280 631L280 739L320 739L320 649L360 649L360 748L400 748L400 730L440 730L440 730L480 730L480 730L520 730L520 694L560 694L560 640L600 640L600 676L600 611L600 575L560 575L560 611L520 611L520 656L480 656L480 674L440 674L440 674L400 674L400 674L360 674L360 602L320 602L320 683L280 683L280 575L240 575L240 665L200 665L200 602L160 602L160 593L120 593L120 593L80 593L80 620L40 620L40 620L0 620Z" fill="#03293c"></path><path d="M0 865L40 865L40 856L80 856L80 856L120 856L120 856L160 856L160 874L200 874L200 847L240 847L240 847L280 847L280 865L320 865L320 856L360 856L360 856L400 856L400 856L440 856L440 874L480 874L480 874L520 874L520 874L560 874L560 847L600 847L600 865L600 674L600 638L560 638L560 692L520 692L520 728L480 728L480 728L440 728L440 728L400 728L400 746L360 746L360 647L320 647L320 737L280 737L280 629L240 629L240 710L200 710L200 674L160 674L160 638L120 638L120 647L80 647L80 692L40 692L40 674L0 674Z" fill="#031d2f"></path><path d="M0 901L40 901L40 901L80 901L80 901L120 901L120 901L160 901L160 901L200 901L200 901L240 901L240 901L280 901L280 901L320 901L320 901L360 901L360 901L400 901L400 901L440 901L440 901L480 901L480 901L520 901L520 901L560 901L560 901L600 901L600 901L600 863L600 845L560 845L560 872L520 872L520 872L480 872L480 872L440 872L440 854L400 854L400 854L360 854L360 854L320 854L320 863L280 863L280 845L240 845L240 845L200 845L200 872L160 872L160 854L120 854L120 854L80 854L80 854L40 854L40 863L0 863Z" fill="#001122"></path></svg>